<?xml version="1.0" encoding="utf-8"?>
<!-- Generator: Adobe Illustrator 24.0.2, SVG Export Plug-In . SVG Version: 6.00 Build 0)  -->
<svg version="1.1" id="Capa_1" xmlns="http://www.w3.org/2000/svg" xmlns:xlink="http://www.w3.org/1999/xlink" x="0px" y="0px"
	 viewBox="0 0 792 233.33" style="enable-background:new 0 0 792 233.33;" xml:space="preserve">
<style type="text/css">
	.st0{fill:#675E66;}
	.st1{fill:#F1F0F0;}
	.st2{font-family:'Diner-Fatt';}
	.st3{font-size:166.2859px;}
	.st4{fill:#8E828B;}
	.st5{fill:#EA5297;}
	.st6{font-family:'LatterSlant';}
	.st7{font-size:61.036px;}
	.st8{fill:#3C3C3B;}
	.st9{font-family:'Megrim';}
	.st10{font-size:34.4986px;}
</style>
<path class="st0" d="M572.35,174.15H0.32l0-131.48h553.69c10.13,0,18.34,8.21,18.34,18.34V174.15z"/>
<g>
	<text transform="matrix(1.0047 0 0 1 528.7002 174.4238)" class="st1 st2 st3">a</text>
</g>
<g>
	<text transform="matrix(-1.0047 0 0 1 622.2451 174.4238)" class="st0 st2 st3">a</text>
</g>
<text transform="matrix(1.0047 0 0 1 393.3916 175.0098)" class="st4 st2 st3">Cre</text>
<text transform="matrix(1.0047 0 0 1 620.4717 175.0098)" class="st0 st2 st3">ndo</text>
<text transform="matrix(0.8558 0 0 1 664.6641 201.5156)" class="st5 st6 st7">Studio</text>
<text transform="matrix(0.8449 0 0 1 115.7939 201.2979)" class="st8 st9 st10">Tecnología reflejando su mejor imagen</text>
<g>
	<path class="st0" d="M116.89,58.55c-12.66-6.71-26.82-8.94-39.39-5.4c-6.28,1.69-12.21,4.46-17.52,8.19
		c-5.33,3.68-10.14,8.12-14.32,13.1c-4.14,5.01-7.73,10.46-10.6,16.24c-2.93,5.75-5.07,11.84-6.48,17.98l-0.51,2.31
		c-0.16,0.77-0.25,1.55-0.38,2.32c-0.11,0.77-0.27,1.54-0.35,2.32l-0.24,2.32c-0.22,1.54-0.2,3.09-0.3,4.62
		c-0.07,0.79,0,1.49,0,2.22c0.04,0.73-0.02,1.45,0.08,2.19c0.47,5.88,1.69,11.94,3.94,17.57c1.05,2.85,2.38,5.55,3.77,8.18
		c1.52,2.53,3.11,5.03,4.94,7.21c0.85,1.17,1.87,2.12,2.8,3.18c0.48,0.51,1.01,0.93,1.51,1.4c0.51,0.46,0.99,0.96,1.55,1.33
		c0.53,0.4,1.07,0.81,1.59,1.23c0.53,0.41,1.1,0.71,1.65,1.08c0.55,0.36,1.11,0.75,1.61,0.98c0.5,0.29,1.04,0.53,1.58,0.77
		c2.16,0.97,4.63,1.53,7.29,1.88c2.68,0.32,5.57,0.3,8.57,0.03c6.01-0.56,12.37-2.12,18.72-4.26c6.37-2.12,12.73-4.81,19.24-7.66
		c6.39-2.87,12.68-5.74,18.91-8.96c1.57-0.77,3.1-1.63,4.66-2.43c1.56-0.81,3.11-1.63,4.63-2.5c1.54-0.85,3.1-1.67,4.63-2.54
		l4.58-2.64c6.07-3.6,12.12-7.31,18.04-11.27c5.89-3.99,11.75-8.07,17.43-12.42c5.68-4.35,11.25-8.85,16.68-13.55
		c2.69-2.36,5.43-4.71,8.02-7.14l7.98-7.39c5.4-4.9,10.91-9.74,16.92-14.15c3.02-2.18,6.12-4.32,9.5-6.15
		c3.35-1.88,6.95-3.52,10.98-4.54c2-0.55,4.14-0.83,6.35-0.92c2.22-0.04,4.52,0.2,6.78,0.8c0.56,0.15,1.11,0.36,1.67,0.55
		c0.56,0.19,1.11,0.39,1.64,0.67l1.61,0.79c0.52,0.31,1.03,0.65,1.55,0.98c2.02,1.38,3.88,3.17,5.25,5.17
		c1.4,1.98,2.48,4.1,3.24,6.15c0.43,1.05,0.71,2.05,1.05,3.07c0.27,0.99,0.57,2.02,0.77,2.99c0.92,3.94,1.45,7.64,2.08,11.06
		c0.62,3.43,1.29,6.56,2.26,9.08c0.5,1.21,1,2.34,1.61,3.15c0.61,0.82,1.18,1.5,1.87,1.99c0.29,0.3,0.73,0.46,1.06,0.72l0.63,0.29
		c0.21,0.1,0.39,0.22,0.66,0.29c0.49,0.15,0.91,0.39,1.5,0.5l0.81,0.23c0.28,0.07,0.61,0.11,0.91,0.17c2.44,0.42,4.97,0.52,7.6,0.18
		c2.63-0.36,5.38-0.99,8.14-2.04c2.76-1.05,5.57-2.34,8.33-3.9c2.77-1.53,5.47-3.33,8.17-5.24c2.68-1.92,5.33-3.96,7.9-6.17
		c2.57-2.19,5.14-4.44,7.62-6.82c2.47-2.38,4.92-4.82,7.33-7.31c19.21-20.16,35.69-43.11,47.38-69.5l2.05,0.57
		c-1.86,14.58-6.68,28.8-13.06,42.2c-3.2,6.71-6.86,13.2-10.87,19.49c-4.03,6.26-8.36,12.32-13.08,18.14
		c-4.69,5.84-9.8,11.4-15.35,16.67c-5.62,5.2-11.63,10.18-18.61,14.29c-3.48,2.05-7.14,3.97-11.13,5.46
		c-3.99,1.47-8.27,2.64-12.81,3.04c-4.52,0.43-9.29,0.17-13.86-1.04c-0.58-0.15-1.14-0.28-1.72-0.46l-1.75-0.62
		c-1.15-0.38-2.35-0.96-3.5-1.54c-0.58-0.27-1.15-0.63-1.72-0.99c-0.57-0.36-1.13-0.71-1.68-1.1c-1.07-0.87-2.18-1.67-3.12-2.7
		c-2-1.92-3.52-4.24-4.69-6.53c-1.19-2.32-1.89-4.61-2.47-6.83c-0.98-4.41-1.27-8.47-1.35-12.2c-0.1-3.74-0.08-7.24-0.33-10.41
		c-0.04-0.82-0.15-1.55-0.22-2.32c-0.12-0.71-0.2-1.49-0.36-2.14c-0.26-1.4-0.67-2.6-1.18-3.67c-0.48-1.1-1.15-1.97-1.96-2.79
		l-0.64-0.6l-0.76-0.52c-0.24-0.2-0.52-0.34-0.8-0.48c-0.28-0.14-0.55-0.32-0.84-0.44c-1.17-0.49-2.45-0.87-3.84-1.02
		c-1.39-0.11-2.86-0.14-4.39,0.09c-3.05,0.37-6.2,1.43-9.28,2.79c-3.06,1.41-6.1,3.08-8.99,5c-2.9,1.92-5.75,3.99-8.47,6.24
		c-2.74,2.23-5.42,4.56-8.01,7c-2.62,2.42-5.17,4.92-7.73,7.47l-7.79,7.6c-10.42,10.07-20.84,20.23-31.85,29.91
		c-11,9.68-22.58,18.9-35.08,26.96l-4.72,2.98c-1.58,0.98-3.21,1.89-4.82,2.84c-3.19,1.9-6.56,3.63-9.81,5.35
		c-6.5,3.36-13.27,6.65-20.43,9.5c-7.16,2.83-14.75,5.28-23.05,6.52c-4.16,0.59-8.5,0.88-13,0.59c-4.5-0.31-9.18-1.18-13.69-2.94
		c-1.13-0.44-2.25-0.9-3.34-1.45c-1.14-0.52-2.1-1.1-3.09-1.68c-0.98-0.59-2-1.14-2.93-1.78l-2.74-2c-0.94-0.65-1.75-1.4-2.59-2.14
		c-0.83-0.74-1.7-1.46-2.48-2.24c-1.51-1.59-3.12-3.13-4.45-4.83c-0.68-0.84-1.4-1.67-2.05-2.53l-1.84-2.64
		c-0.3-0.44-0.62-0.88-0.91-1.33l-0.82-1.36l-1.63-2.74l-1.45-2.81c-0.49-0.93-0.96-1.88-1.37-2.84l-1.26-2.88
		c-0.39-0.97-0.72-1.96-1.08-2.94c-2.8-7.87-4.41-16.12-4.54-24.64c-0.06-1.05,0.03-2.14,0.05-3.21c0.04-1.07,0.04-2.17,0.17-3.17
		c0.22-2.05,0.34-4.12,0.72-6.13l0.5-3.03c0.18-1.01,0.44-1.99,0.66-2.99c0.24-0.99,0.44-1.99,0.72-2.97l0.85-2.92
		c4.66-15.54,13.42-29.4,24.84-40.4c5.73-5.49,12.28-10.15,19.37-13.76c7.08-3.63,14.88-5.96,22.8-6.73
		c7.91-0.85,15.93,0.29,23.2,2.81c7.28,2.58,13.8,6.63,19.24,11.6L116.89,58.55z"/>
</g>
<g>
	<path class="st5" d="M117.19,58.12c-6.11-3.74-12.76-6.47-19.61-7.81c-6.84-1.37-13.86-1.34-20.55,0.15
		c-6.69,1.47-13.08,4.14-18.84,7.83c-5.77,3.67-11,8.18-15.58,13.27c-4.56,5.11-8.47,10.79-11.68,16.81
		c-3.25,6-5.73,12.4-7.34,18.96L23,109.78c-0.19,0.82-0.31,1.66-0.46,2.48c-0.14,0.83-0.32,1.65-0.43,2.49l-0.31,2.5
		c-0.26,1.66-0.27,3.34-0.41,5c-0.08,0.84-0.03,1.64-0.04,2.46c0.02,0.82-0.04,1.62,0.05,2.45c0.38,6.54,1.7,13.14,4.09,19.34
		c1.12,3.13,2.58,6.1,4.12,9c1.68,2.81,3.42,5.6,5.52,8.06c0.97,1.31,2.13,2.4,3.21,3.59c0.55,0.58,1.17,1.07,1.75,1.61
		c0.59,0.53,1.16,1.09,1.81,1.53l1.88,1.42c0.63,0.47,1.32,0.83,1.97,1.26c0.66,0.41,1.32,0.85,1.98,1.16
		c0.65,0.36,1.33,0.65,2.02,0.94c2.75,1.17,5.77,1.82,8.9,2.15c3.14,0.31,6.39,0.21,9.68-0.14c6.58-0.73,13.25-2.52,19.8-4.82
		c6.57-2.3,13.03-5.15,19.54-8.11c6.45-2.97,12.77-6.12,19.02-9.51c1.57-0.82,3.1-1.73,4.65-2.59c1.55-0.87,3.09-1.75,4.61-2.67
		c1.53-0.91,3.08-1.79,4.59-2.72l4.54-2.81c6.02-3.82,11.96-7.8,17.77-11.98c11.61-8.37,22.82-17.38,33.53-26.96
		c2.68-2.4,5.38-4.78,7.96-7.25c2.61-2.47,5.23-4.97,7.91-7.41c5.37-4.87,10.85-9.66,16.82-13.91c2.99-2.11,6.07-4.15,9.36-5.89
		c3.28-1.75,6.78-3.22,10.57-4.08c1.88-0.47,3.86-0.68,5.86-0.72c2.01,0,4.06,0.29,6.05,0.86c0.5,0.15,0.97,0.35,1.46,0.53
		c0.49,0.18,0.97,0.37,1.43,0.63l1.39,0.73c0.45,0.28,0.88,0.59,1.32,0.89c1.72,1.24,3.28,2.8,4.43,4.58
		c1.18,1.75,2.09,3.64,2.72,5.53c0.68,1.89,1.14,3.79,1.51,5.66c0.75,3.75,1.14,7.4,1.64,10.9c0.49,3.51,1.04,6.86,2.02,9.87
		c1,2.98,2.43,5.47,4.42,7.19c0.45,0.48,1.06,0.8,1.57,1.22c0.29,0.17,0.6,0.33,0.89,0.5c0.3,0.17,0.58,0.35,0.92,0.46
		c0.66,0.26,1.27,0.58,2,0.76l1.05,0.33c0.36,0.1,0.74,0.16,1.11,0.24c2.97,0.62,6.06,0.76,9.17,0.4
		c6.23-0.69,12.47-3.23,18.34-6.58c2.94-1.67,5.79-3.58,8.58-5.62c2.78-2.05,5.5-4.2,8.12-6.52c5.28-4.57,10.3-9.53,15.07-14.75
		c19.08-20.9,35-45,44.77-72.1l1.02,0.28c-2.88,14.23-8.22,27.99-15.03,40.91c-3.39,6.48-7.18,12.76-11.31,18.81
		c-4.13,6.05-8.51,11.93-13.27,17.52c-9.51,11.16-20.06,21.78-33.21,29.62c-3.3,1.93-6.75,3.69-10.43,5.07
		c-3.68,1.36-7.58,2.4-11.64,2.79c-4.05,0.41-8.26,0.19-12.3-0.82c-0.51-0.13-1.01-0.24-1.52-0.39l-1.52-0.52
		c-1.01-0.31-2.01-0.81-3-1.28c-0.5-0.22-0.98-0.52-1.45-0.82c-0.48-0.3-0.96-0.58-1.42-0.9c-0.88-0.72-1.83-1.36-2.6-2.2
		c-1.67-1.56-2.95-3.48-3.98-5.4c-1.04-1.94-1.68-3.95-2.24-5.91c-0.99-3.94-1.38-7.76-1.6-11.41c-0.23-3.66-0.35-7.21-0.76-10.58
		c-0.2-1.69-0.48-3.32-0.9-4.86c-0.39-1.56-0.96-2.99-1.69-4.29c-1.41-2.62-3.79-4.53-6.68-5.66c-1.45-0.51-2.98-0.85-4.57-0.96
		c-1.59-0.07-3.23-0.02-4.88,0.28c-3.3,0.53-6.55,1.76-9.69,3.25c-3.14,1.51-6.21,3.27-9.13,5.27c-5.87,3.97-11.35,8.6-16.59,13.48
		c-2.62,2.44-5.2,4.94-7.79,7.45l-7.84,7.49c-2.63,2.47-5.26,4.95-7.94,7.38c-2.64,2.48-5.33,4.89-8.01,7.33
		c-5.41,4.81-10.87,9.58-16.48,14.2c-11.23,9.2-22.94,17.94-35.45,25.55c-6.21,3.87-12.72,7.3-19.23,10.62
		c-6.49,3.25-13.17,6.37-20.13,9.04c-6.96,2.66-14.24,4.88-21.97,5.95c-3.87,0.5-7.85,0.72-11.89,0.41
		c-4.04-0.33-8.16-1.11-12.09-2.67c-0.98-0.39-1.96-0.79-2.9-1.28c-0.98-0.44-1.84-0.98-2.72-1.5c-0.87-0.53-1.78-1.02-2.61-1.6
		l-2.45-1.81c-0.84-0.58-1.57-1.27-2.33-1.93c-0.74-0.68-1.53-1.32-2.24-2.03c-1.37-1.45-2.83-2.85-4.04-4.42
		c-0.62-0.77-1.27-1.53-1.87-2.32l-1.7-2.43c-0.28-0.41-0.57-0.81-0.84-1.22l-0.76-1.26l-1.51-2.53c-1.82-3.46-3.57-6.97-4.81-10.65
		c-2.66-7.31-4.18-15.01-4.39-22.87c-0.07-0.98,0.01-1.97,0.02-2.96c0.03-0.98,0.02-1.99,0.13-2.94c0.19-1.92,0.28-3.86,0.62-5.75
		l0.44-2.85c0.16-0.95,0.4-1.88,0.59-2.82c0.21-0.94,0.39-1.88,0.64-2.81l0.77-2.77c4.19-14.73,12.25-28.11,22.9-38.85
		c5.32-5.38,11.46-9.96,18.11-13.59l1.24-0.69l1.29-0.61l2.57-1.22c0.86-0.39,1.76-0.71,2.64-1.06c0.89-0.33,1.75-0.73,2.67-0.98
		c1.82-0.54,3.61-1.16,5.48-1.52c0.93-0.2,1.85-0.43,2.77-0.61l2.81-0.41c7.5-1.09,15.19-0.33,22.32,1.81
		c7.14,2.16,13.69,5.79,19.36,10.34L117.19,58.12z"/>
</g>
<g>
	<path class="st5" d="M117.4,58.26c1.17-2.56,2.88-4.99,5.23-6.82c2.33-1.82,5.27-3.07,8.39-3.26c1.56-0.1,3.15,0.04,4.7,0.43
		c1.54,0.4,3.03,1.07,4.39,1.95c2.72,1.76,4.8,4.58,5.9,7.54c1.73,4.44,5.96,7.6,10.71,9.09c2.38,0.74,4.9,1.12,7.38,1.03
		c2.48-0.06,4.91-0.6,7.02-1.63l0.14-0.07c1.23-0.6,2.72-0.09,3.32,1.14c0.54,1.11,0.18,2.43-0.8,3.12
		c-1.26,0.89-2.41,1.57-3.65,2.27c-1.22,0.69-2.47,1.31-3.74,1.9c-2.54,1.16-5.16,2.15-7.87,2.88c-5.39,1.47-11.17,1.99-16.74,0.91
		c-2.77-0.54-5.47-1.44-7.97-2.71c-1.26-0.62-2.45-1.35-3.59-2.14c-1.14-0.79-2.23-1.65-3.25-2.58c-2.06-1.83-3.86-3.91-5.44-6.11
		C119.94,63,118.58,60.67,117.4,58.26c3.08,4.38,6.63,8.42,10.84,11.49c4.2,3.06,9.04,5.08,14.07,5.62
		c5.02,0.57,10.13-0.16,14.97-1.74c2.42-0.8,4.79-1.77,7.06-2.93c1.14-0.58,2.26-1.2,3.35-1.85c1.07-0.64,2.2-1.37,3.11-2.05
		l2.66,4.19c-2.86,1.6-6.04,2.31-9.15,2.48c-3.12,0.13-6.24-0.28-9.2-1.25c-2.96-0.95-5.78-2.47-8.19-4.58
		c-2.4-2.1-4.34-4.86-5.33-7.96c-0.72-2.33-1.97-4.35-3.84-5.84c-1.84-1.49-4.19-2.42-6.69-2.59c-2.49-0.14-5.1,0.43-7.44,1.7
		C121.25,54.17,119.19,56.08,117.4,58.26z"/>
</g>
</svg>
